<?xml version="1.0" encoding="iso-8859-1"?>
<!-- Generator: Adobe Illustrator 19.0.0, SVG Export Plug-In . SVG Version: 6.00 Build 0)  -->
<svg version="1.1" id="Layer_1" xmlns="http://www.w3.org/2000/svg" xmlns:xlink="http://www.w3.org/1999/xlink" x="0px" y="0px"
	 viewBox="0 0 512 512" style="enable-background:new 0 0 512 512;" xml:space="preserve">
<path style="fill:#088690;" d="M289.106,82.481V33.105C289.106,14.822,274.285,0,256.001,0c-18.284,0-33.105,14.822-33.105,33.105
	v49.376H289.106z"/>
<path style="fill:#0BAEBC;" d="M256.001,0c-18.284,0-33.105,14.822-33.105,33.105v49.376h33.105V0z"/>
<path style="fill:#088690;" d="M435.532,150.032H76.469c-21.903,0-39.722,17.82-39.722,39.723s17.82,39.722,39.722,39.722h359.062
	c21.903,0,39.722-17.819,39.722-39.722S457.434,150.032,435.532,150.032z M435.532,197.872H76.469c-4.476,0-8.117-3.641-8.117-8.117
	s3.642-8.118,8.117-8.118h359.062c4.476,0,8.117,3.642,8.117,8.118S440.007,197.872,435.532,197.872z"/>
<path style="fill:#B5CDDF;" d="M347.487,51.929H164.515c-42.975,0-77.812,34.838-77.812,77.812v4.489v227.589
	c0,27.889,22.609,50.5,50.5,50.5h237.598c27.891,0,50.5-22.609,50.5-50.5V134.23v-4.489
	C425.299,86.767,390.462,51.929,347.487,51.929z"/>
<g>
	<path style="fill:#FF9845;" d="M124.05,512c-15.936,0-28.902-12.965-28.902-28.903c0-25.296,25.037-41.295,26.103-41.964
		l2.799-1.756l2.799,1.756c1.066,0.669,26.103,16.669,26.103,41.964C152.951,499.035,139.986,512,124.05,512z"/>
	<path style="fill:#FF9845;" d="M212.017,512c-15.936,0-28.902-12.965-28.902-28.903c0-25.296,25.037-41.295,26.103-41.964
		l2.799-1.756l2.799,1.756c1.066,0.669,26.103,16.669,26.103,41.964C240.919,499.035,227.954,512,212.017,512z"/>
</g>
<g>
	<path style="fill:#FB7100;" d="M299.985,512c-15.936,0-28.903-12.965-28.903-28.903c0-25.296,25.038-41.295,26.103-41.964
		l2.799-1.756l2.799,1.756c1.066,0.669,26.103,16.669,26.103,41.964C328.887,499.035,315.921,512,299.985,512z"/>
	<path style="fill:#FB7100;" d="M387.951,512c-15.936,0-28.902-12.965-28.902-28.903c0-25.296,25.036-41.295,26.103-41.964
		l2.799-1.756l2.799,1.756c1.066,0.669,26.103,16.669,26.103,41.964C416.853,499.035,403.888,512,387.951,512z"/>
</g>
<path style="fill:#C9E5F9;" d="M256.001,51.929h-91.487c-42.975,0-77.812,34.837-77.812,77.811v4.489v227.589
	c0,27.89,22.609,50.5,50.5,50.5h118.799V51.929z"/>
<path style="fill:#088690;" d="M425.299,129.74c0-3.843-0.29-7.619-0.828-11.314H87.531c-0.538,3.695-0.828,7.47-0.828,11.314v4.489
	v15.803h338.596v-15.803L425.299,129.74L425.299,129.74z"/>
<path style="fill:#0BAEBC;" d="M256.001,118.427H87.531c-0.538,3.695-0.828,7.47-0.828,11.314v4.489v15.803h169.299v-31.605H256.001
	z"/>
<g>
</g>
<g>
</g>
<g>
</g>
<g>
</g>
<g>
</g>
<g>
</g>
<g>
</g>
<g>
</g>
<g>
</g>
<g>
</g>
<g>
</g>
<g>
</g>
<g>
</g>
<g>
</g>
<g>
</g>
</svg>
